<svg width="354" height="77" viewBox="0 0 354 77" fill="none" xmlns="http://www.w3.org/2000/svg">
<path d="M47.1 56.2C47.1 60.4 46.0667 64.0667 44 67.2C41.9333 70.3333 38.9333 72.7667 35 74.5C31.1333 76.1667 26.4 77 20.8 77C18.3333 77 15.9 76.8333 13.5 76.5C11.1667 76.1667 8.9 75.7 6.7 75.1C4.56667 74.4333 2.53333 73.6333 0.6 72.7V58.6C4 60.0667 7.5 61.4333 11.1 62.7C14.7667 63.9 18.4 64.5 22 64.5C24.4667 64.5 26.4333 64.1667 27.9 63.5C29.4333 62.8333 30.5333 61.9333 31.2 60.8C31.9333 59.6667 32.3 58.3667 32.3 56.9C32.3 55.1 31.6667 53.5667 30.4 52.3C29.2 51.0333 27.5667 49.8667 25.5 48.8C23.4333 47.6667 21.0667 46.4667 18.4 45.2C16.7333 44.4 14.9333 43.4667 13 42.4C11.0667 41.2667 9.2 39.9 7.4 38.3C5.66667 36.6333 4.23333 34.6333 3.1 32.3C1.96667 29.9667 1.4 27.1667 1.4 23.9C1.4 19.6333 2.36667 16 4.3 13C6.3 9.93333 9.1 7.59999 12.7 6C16.3667 4.4 20.6667 3.6 25.6 3.6C29.3333 3.6 32.8667 4.03333 36.2 4.9C39.6 5.76666 43.1333 7 46.8 8.6L41.9 20.4C38.6333 19.0667 35.7 18.0333 33.1 17.3C30.5 16.5667 27.8333 16.2 25.1 16.2C23.2333 16.2 21.6333 16.5 20.3 17.1C18.9667 17.7 17.9333 18.5333 17.2 19.6C16.5333 20.6667 16.2 21.9333 16.2 23.4C16.2 25.0667 16.7 26.5 17.7 27.7C18.7 28.8333 20.2 29.9333 22.2 31C24.2 32.0667 26.7 33.3333 29.7 34.8C33.3667 36.5333 36.4667 38.3333 39 40.2C41.6 42.0667 43.6 44.2667 45 46.8C46.4 49.3333 47.1 52.4667 47.1 56.2ZM108.478 48.6C108.478 53.1333 107.845 57.1667 106.578 60.7C105.378 64.2333 103.611 67.2333 101.278 69.7C99.0115 72.1 96.2448 73.9333 92.9781 75.2C89.7115 76.4 86.0115 77 81.8781 77C78.0781 77 74.5448 76.4 71.2781 75.2C68.0781 73.9333 65.3115 72.1 62.9781 69.7C60.6448 67.2333 58.8115 64.2333 57.4781 60.7C56.2115 57.1667 55.5781 53.1333 55.5781 48.6C55.5781 42.5333 56.6448 37.4333 58.7781 33.3C60.9115 29.1 63.9781 25.9 67.9781 23.7C71.9781 21.5 76.7115 20.4 82.1781 20.4C87.3115 20.4 91.8448 21.5 95.7781 23.7C99.7115 25.9 102.811 29.1 105.078 33.3C107.345 37.4333 108.478 42.5333 108.478 48.6ZM70.7781 48.6C70.7781 52.2 71.1448 55.2333 71.8781 57.7C72.6781 60.1 73.9115 61.9333 75.5781 63.2C77.2448 64.4 79.4115 65 82.0781 65C84.7448 65 86.8781 64.4 88.4781 63.2C90.1448 61.9333 91.3448 60.1 92.0781 57.7C92.8781 55.2333 93.2781 52.2 93.2781 48.6C93.2781 45 92.8781 42 92.0781 39.6C91.3448 37.2 90.1448 35.4 88.4781 34.2C86.8115 33 84.6448 32.4 81.9781 32.4C78.0448 32.4 75.1781 33.7667 73.3781 36.5C71.6448 39.1667 70.7781 43.2 70.7781 48.6ZM135.692 76H120.792V-5.00679e-06H135.692V76ZM200.861 48.6C200.861 53.1333 200.228 57.1667 198.961 60.7C197.761 64.2333 195.994 67.2333 193.661 69.7C191.394 72.1 188.628 73.9333 185.361 75.2C182.094 76.4 178.394 77 174.261 77C170.461 77 166.928 76.4 163.661 75.2C160.461 73.9333 157.694 72.1 155.361 69.7C153.028 67.2333 151.194 64.2333 149.861 60.7C148.594 57.1667 147.961 53.1333 147.961 48.6C147.961 42.5333 149.028 37.4333 151.161 33.3C153.294 29.1 156.361 25.9 160.361 23.7C164.361 21.5 169.094 20.4 174.561 20.4C179.694 20.4 184.228 21.5 188.161 23.7C192.094 25.9 195.194 29.1 197.461 33.3C199.728 37.4333 200.861 42.5333 200.861 48.6ZM163.161 48.6C163.161 52.2 163.528 55.2333 164.261 57.7C165.061 60.1 166.294 61.9333 167.961 63.2C169.628 64.4 171.794 65 174.461 65C177.128 65 179.261 64.4 180.861 63.2C182.528 61.9333 183.728 60.1 184.461 57.7C185.261 55.2333 185.661 52.2 185.661 48.6C185.661 45 185.261 42 184.461 39.6C183.728 37.2 182.528 35.4 180.861 34.2C179.194 33 177.028 32.4 174.361 32.4C170.428 32.4 167.561 33.7667 165.761 36.5C164.028 39.1667 163.161 43.2 163.161 48.6ZM244.575 76L227.375 20H226.975C227.042 21.3333 227.142 23.3333 227.275 26C227.408 28.6667 227.542 31.5333 227.675 34.6C227.808 37.6 227.875 40.3333 227.875 42.8V76H214.375V4.6H234.975L251.875 59.2H252.175L270.075 4.6H290.675V76H276.575V42.2C276.575 39.9333 276.608 37.3333 276.675 34.4C276.808 31.4667 276.908 28.7 276.975 26.1C277.108 23.4333 277.208 21.4333 277.275 20.1H276.875L258.475 76H244.575ZM328.311 3.7C332.444 3.7 336.211 4.33333 339.611 5.59999C343.078 6.86666 345.844 8.76666 347.911 11.3C350.044 13.8333 351.111 17.0333 351.111 20.9C351.111 23.7667 350.544 26.3 349.411 28.5C348.278 30.6333 346.744 32.5 344.811 34.1C342.944 35.7 340.778 37.1 338.311 38.3C340.844 39.6333 343.244 41.2 345.511 43C347.844 44.7333 349.711 46.8 351.111 49.2C352.578 51.5333 353.311 54.3 353.311 57.5C353.311 61.4333 352.244 64.8667 350.111 67.8C348.044 70.7333 345.111 73 341.311 74.6C337.578 76.2 333.244 77 328.311 77C322.978 77 318.444 76.2333 314.711 74.7C310.978 73.1667 308.111 70.9667 306.111 68.1C304.178 65.2333 303.211 61.8333 303.211 57.9C303.211 54.6333 303.811 51.8 305.011 49.4C306.278 47 307.944 44.9333 310.011 43.2C312.078 41.4 314.378 39.9 316.911 38.7C314.778 37.3667 312.844 35.8667 311.111 34.2C309.378 32.4667 307.978 30.5333 306.911 28.4C305.911 26.2 305.411 23.6667 305.411 20.8C305.411 17 306.478 13.8333 308.611 11.3C310.744 8.76666 313.544 6.86666 317.011 5.59999C320.544 4.33333 324.311 3.7 328.311 3.7ZM317.211 57C317.211 59.6 318.111 61.7333 319.911 63.4C321.778 65.0667 324.511 65.9 328.111 65.9C330.644 65.9 332.711 65.5333 334.311 64.8C335.978 64.0667 337.211 63.0333 338.011 61.7C338.878 60.3667 339.311 58.8333 339.311 57.1C339.311 55.3 338.778 53.7333 337.711 52.4C336.644 51 335.311 49.7667 333.711 48.7C332.178 47.5667 330.578 46.5333 328.911 45.6L327.611 44.9C325.544 45.8333 323.711 46.9 322.111 48.1C320.578 49.3 319.378 50.6333 318.511 52.1C317.644 53.5 317.211 55.1333 317.211 57ZM328.211 14.7C325.744 14.7 323.678 15.3333 322.011 16.6C320.411 17.8667 319.611 19.6667 319.611 22C319.611 23.6 320.011 25.0333 320.811 26.3C321.611 27.5 322.678 28.5667 324.011 29.5C325.344 30.3667 326.778 31.2 328.311 32C329.844 31.2667 331.244 30.4667 332.511 29.6C333.844 28.7333 334.911 27.7 335.711 26.5C336.511 25.2333 336.911 23.7333 336.911 22C336.911 19.6667 336.078 17.8667 334.411 16.6C332.811 15.3333 330.744 14.7 328.211 14.7Z" fill="black"/>
</svg>
